<svg width="512" height="512" viewBox="0 0 512 512" fill="none" xmlns="http://www.w3.org/2000/svg">
<g clip-path="url(#clip0_1_2)">
<rect width="512" height="512" rx="32" fill="black"/>
<rect width="512" height="512" rx="32" fill="black"/>
<path d="M80.125 251V137.4H93.885V244.6L87.005 237.56H150.525V251H80.125ZM172.863 251V237.56H201.182V150.84H172.863V137.4H243.263V150.84H214.943V237.56H243.263V251H172.863ZM267.2 251V137.4H286.72L327.04 235.32V137.4H340.8V251H321.28L280.96 153.08V251H267.2ZM373.698 214.84V196.28L422.978 137.4H439.938L373.698 214.84ZM361.538 251V137.4H375.298V251H361.538ZM424.578 251L384.898 193.4L394.498 183.48L441.538 251H424.578ZM72.125 375V361.24L135.485 274.84H75.005V261.4H150.845V275.16L87.485 361.56H152.125V375H72.125ZM174.463 375V261.4H243.583V274.84H188.223V311.48H241.663V324.6H188.223V361.56H244.863V375H174.463ZM267.2 375V261.4H301.76C313.707 261.4 323.147 264.44 330.08 270.52C337.013 276.493 340.48 284.76 340.48 295.32C340.48 300.653 339.253 305.4 336.8 309.56C334.347 313.613 331.2 316.813 327.36 319.16C323.52 321.507 319.573 322.84 315.52 323.16L314.88 321.24C322.453 321.667 328.107 323.48 331.84 326.68C335.68 329.88 337.92 335.107 338.56 342.36L341.44 375H327.68L324.96 344.12C324.64 340.6 323.787 337.773 322.4 335.64C321.12 333.4 319.04 331.8 316.16 330.84C313.387 329.773 309.547 329.24 304.64 329.24H280.96V375H267.2ZM280.96 315.8H301.76C309.653 315.8 315.68 314.04 319.84 310.52C324 306.893 326.08 301.827 326.08 295.32C326.08 288.707 324 283.64 319.84 280.12C315.68 276.6 309.653 274.84 301.76 274.84H280.96V315.8ZM371.138 358.68L415.938 277.08L428.738 277.72L383.938 359.32L371.138 358.68ZM399.938 377.56C391.724 377.56 384.578 375.16 378.498 370.36C372.524 365.56 367.938 358.733 364.738 349.88C361.538 341.027 359.938 330.52 359.938 318.36C359.938 306.093 361.538 295.533 364.738 286.68C367.938 277.827 372.524 271 378.498 266.2C384.578 261.293 391.724 258.84 399.938 258.84C408.258 258.84 415.404 261.293 421.378 266.2C427.351 271 431.938 277.827 435.138 286.68C438.338 295.533 439.938 306.093 439.938 318.36C439.938 330.52 438.338 341.027 435.138 349.88C431.938 358.733 427.351 365.56 421.378 370.36C415.404 375.16 408.258 377.56 399.938 377.56ZM399.938 364.12C405.271 364.12 409.804 362.253 413.538 358.52C417.378 354.787 420.311 349.507 422.338 342.68C424.471 335.747 425.538 327.64 425.538 318.36C425.538 308.867 424.471 300.707 422.338 293.88C420.311 286.947 417.378 281.613 413.538 277.88C409.804 274.147 405.271 272.28 399.938 272.28C394.711 272.28 390.178 274.147 386.338 277.88C382.498 281.613 379.511 286.947 377.378 293.88C375.351 300.707 374.338 308.867 374.338 318.36C374.338 327.64 375.351 335.747 377.378 342.68C379.511 349.507 382.498 354.787 386.338 358.52C390.178 362.253 394.711 364.12 399.938 364.12Z" fill="white"/>
</g>
<defs>
<clipPath id="clip0_1_2">
<rect width="512" height="512" rx="32" fill="white"/>
</clipPath>
</defs>
</svg>
